# Blender v2.93.0 OBJ File: 'Pool.blend'
# www.blender.org
mtllib Pool.mtl
o Cube
v -7.305315 -0.343931 7.305315
v -5.710665 0.252305 5.710665
v -7.305315 -0.343931 -7.305315
v -5.710665 0.252305 -5.710665
v 7.305315 -0.343931 7.305315
v 5.710665 0.252305 5.710665
v 7.305315 -0.343931 -7.305315
v 5.710665 0.252305 -5.710665
v -7.305315 1.123490 7.305315
v -7.305315 1.123490 -7.305315
v 7.305315 1.123490 -7.305315
v 7.305315 1.123490 7.305315
v -7.305316 2.037074 7.305316
v -7.305316 2.037074 -7.305316
v 7.305316 2.037074 -7.305316
v 7.305316 2.037074 7.305316
v -5.710665 2.037074 5.710665
v -5.710665 2.037074 -5.710665
v 5.710665 2.037074 -5.710665
v 5.710665 2.037074 5.710665
vt 0.375000 0.000000
vt 0.625000 0.000000
vt 0.625000 0.250000
vt 0.375000 0.250000
vt 0.625000 0.500000
vt 0.375000 0.500000
vt 0.625000 0.750000
vt 0.375000 0.750000
vt 0.625000 1.000000
vt 0.375000 1.000000
vt 0.125000 0.500000
vt 0.125000 0.750000
vt 0.625000 0.250000
vt 0.625000 0.500000
vt 0.625000 0.750000
vt 0.625000 1.000000
vt 0.847714 0.722714
vt 0.847714 0.527286
vt 0.875000 0.500000
vt 0.875000 0.750000
vt 0.652286 0.527286
vt 0.652286 0.722714
vt 0.625000 0.000000
vt 0.652286 0.527286
vt 0.847714 0.527286
vt 0.847714 0.722714
vt 0.652286 0.722714
vn -1.0000 0.0000 0.0000
vn 0.0000 0.0000 -1.0000
vn 1.0000 0.0000 0.0000
vn 0.0000 0.0000 1.0000
vn 0.0000 -1.0000 0.0000
vn 0.0000 1.0000 0.0000
usemtl Material.002
s off
f 1/1/1 9/2/1 10/3/1 3/4/1
f 3/4/2 10/3/2 11/5/2 7/6/2
f 7/6/3 11/5/3 12/7/3 5/8/3
f 5/8/4 12/7/4 9/9/4 1/10/4
f 3/11/5 7/6/5 5/8/5 1/12/5
f 11/5/2 10/3/2 14/13/2 15/14/2
f 9/9/4 12/7/4 16/15/4 13/16/4
f 17/17/6 18/18/6 14/19/6 13/20/6
f 18/18/6 19/21/6 15/14/6 14/19/6
f 19/21/6 20/22/6 16/15/6 15/14/6
f 20/22/6 17/17/6 13/20/6 16/15/6
f 12/7/3 11/5/3 15/14/3 16/15/3
f 10/3/1 9/2/1 13/23/1 14/13/1
usemtl coolcol
f 8/24/6 4/25/6 2/26/6 6/27/6
f 2/26/3 4/25/3 18/18/3 17/17/3
f 8/24/1 6/27/1 20/22/1 19/21/1
f 6/27/2 2/26/2 17/17/2 20/22/2
f 4/25/4 8/24/4 19/21/4 18/18/4
